<svg width="85" height="93" viewBox="0 0 85 93" fill="none" xmlns="http://www.w3.org/2000/svg">
<g filter="url(#filter0_ddddd_595_551)">
<rect x="10.5" y="3" width="64" height="64" rx="32" fill="#ECE7FE"/>
<rect x="11.25" y="3.75" width="62.5" height="62.5" rx="31.25" stroke="#E3DFF5" stroke-width="1.5"/>
<path d="M55.8333 25.4663V41.3196C55.8333 42.6129 54.78 43.7996 53.4867 43.9596L53.0733 44.0129C50.8867 44.3063 47.8067 45.2129 45.3267 46.2529C44.46 46.6129 43.5 45.9596 43.5 45.0129V26.4663C43.5 25.9729 43.78 25.5196 44.22 25.2796C46.66 23.9596 50.3533 22.7863 52.86 22.5729H52.94C54.54 22.5729 55.8333 23.8663 55.8333 25.4663Z" fill="#9478F7"/>
<path d="M40.78 25.2796C38.34 23.9596 34.6467 22.7863 32.14 22.5729H32.0467C30.4467 22.5729 29.1533 23.8663 29.1533 25.4663V41.3196C29.1533 42.6129 30.2067 43.7996 31.5 43.9596L31.9133 44.0129C34.1 44.3063 37.18 45.2129 39.66 46.2529C40.5267 46.6129 41.4867 45.9596 41.4867 45.0129V26.4663C41.4867 25.9596 41.22 25.5196 40.78 25.2796ZM33.1667 29.3196H36.1667C36.7133 29.3196 37.1667 29.7729 37.1667 30.3196C37.1667 30.8796 36.7133 31.3196 36.1667 31.3196H33.1667C32.62 31.3196 32.1667 30.8796 32.1667 30.3196C32.1667 29.7729 32.62 29.3196 33.1667 29.3196ZM37.1667 35.3196H33.1667C32.62 35.3196 32.1667 34.8796 32.1667 34.3196C32.1667 33.7729 32.62 33.3196 33.1667 33.3196H37.1667C37.7133 33.3196 38.1667 33.7729 38.1667 34.3196C38.1667 34.8796 37.7133 35.3196 37.1667 35.3196Z" fill="#9478F7"/>
</g>
<defs>
<filter id="filter0_ddddd_595_551" x="0.5" y="0" width="84" height="93" filterUnits="userSpaceOnUse" color-interpolation-filters="sRGB">
<feFlood flood-opacity="0" result="BackgroundImageFix"/>
<feColorMatrix in="SourceAlpha" type="matrix" values="0 0 0 0 0 0 0 0 0 0 0 0 0 0 0 0 0 0 127 0" result="hardAlpha"/>
<feOffset dy="1"/>
<feGaussianBlur stdDeviation="1.5"/>
<feColorMatrix type="matrix" values="0 0 0 0 0.92549 0 0 0 0 0.905882 0 0 0 0 0.996078 0 0 0 0.49 0"/>
<feBlend mode="normal" in2="BackgroundImageFix" result="effect1_dropShadow_595_551"/>
<feColorMatrix in="SourceAlpha" type="matrix" values="0 0 0 0 0 0 0 0 0 0 0 0 0 0 0 0 0 0 127 0" result="hardAlpha"/>
<feOffset dy="3"/>
<feGaussianBlur stdDeviation="3"/>
<feColorMatrix type="matrix" values="0 0 0 0 0.92549 0 0 0 0 0.905882 0 0 0 0 0.996078 0 0 0 0.43 0"/>
<feBlend mode="normal" in2="effect1_dropShadow_595_551" result="effect2_dropShadow_595_551"/>
<feColorMatrix in="SourceAlpha" type="matrix" values="0 0 0 0 0 0 0 0 0 0 0 0 0 0 0 0 0 0 127 0" result="hardAlpha"/>
<feOffset dy="6"/>
<feGaussianBlur stdDeviation="4"/>
<feColorMatrix type="matrix" values="0 0 0 0 0.92549 0 0 0 0 0.905882 0 0 0 0 0.996078 0 0 0 0.25 0"/>
<feBlend mode="normal" in2="effect2_dropShadow_595_551" result="effect3_dropShadow_595_551"/>
<feColorMatrix in="SourceAlpha" type="matrix" values="0 0 0 0 0 0 0 0 0 0 0 0 0 0 0 0 0 0 127 0" result="hardAlpha"/>
<feOffset dy="10"/>
<feGaussianBlur stdDeviation="4.5"/>
<feColorMatrix type="matrix" values="0 0 0 0 0.92549 0 0 0 0 0.905882 0 0 0 0 0.996078 0 0 0 0.07 0"/>
<feBlend mode="normal" in2="effect3_dropShadow_595_551" result="effect4_dropShadow_595_551"/>
<feColorMatrix in="SourceAlpha" type="matrix" values="0 0 0 0 0 0 0 0 0 0 0 0 0 0 0 0 0 0 127 0" result="hardAlpha"/>
<feOffset dy="16"/>
<feGaussianBlur stdDeviation="5"/>
<feColorMatrix type="matrix" values="0 0 0 0 0.92549 0 0 0 0 0.905882 0 0 0 0 0.996078 0 0 0 0.01 0"/>
<feBlend mode="normal" in2="effect4_dropShadow_595_551" result="effect5_dropShadow_595_551"/>
<feBlend mode="normal" in="SourceGraphic" in2="effect5_dropShadow_595_551" result="shape"/>
</filter>
</defs>
</svg>
