<svg width="85" height="93" viewBox="0 0 85 93" fill="none" xmlns="http://www.w3.org/2000/svg">
<g filter="url(#filter0_ddddd_595_562)">
<rect x="10.5" y="3" width="64" height="64" rx="32" fill="#E6F6FF"/>
<rect x="11.25" y="3.75" width="62.5" height="62.5" rx="31.25" stroke="#C9ECFF" stroke-width="1.5"/>
<path d="M53.9797 33.4406C52.953 32.214 51.633 31.414 50.0997 31.0673C49.753 29.5206 49.153 28.1873 48.273 27.0806C48.2464 27.0406 48.2197 27.0006 48.193 26.974C45.2597 23.4273 40.4597 23.4406 37.2197 25.2806C34.4464 26.8673 32.0864 30.214 33.3264 34.9873C30.4864 35.6806 29.1797 38.1606 29.1797 40.4006C29.1797 42.9073 30.8197 45.7206 34.473 45.9873H48.2597C48.273 45.9873 48.2997 45.9873 48.313 45.9873C50.2064 45.9873 52.0197 45.2806 53.4197 44.0006C56.7664 41.0406 56.3264 36.214 53.9797 33.4406Z" fill="#52C1FF"/>
<path d="M55.5133 30.653C55.5133 31.1064 55.4599 31.5464 55.3266 31.973C54.3533 30.8397 53.1133 29.9997 51.7399 29.4797C51.3133 28.1464 50.6999 26.9597 49.8999 25.9197C49.8599 25.8664 49.8199 25.813 49.7666 25.7464C50.0199 25.693 50.2866 25.6797 50.5399 25.6797C53.2866 25.6797 55.5133 27.9064 55.5133 30.653Z" fill="#52C1FF"/>
</g>
<defs>
<filter id="filter0_ddddd_595_562" x="0.5" y="0" width="84" height="93" filterUnits="userSpaceOnUse" color-interpolation-filters="sRGB">
<feFlood flood-opacity="0" result="BackgroundImageFix"/>
<feColorMatrix in="SourceAlpha" type="matrix" values="0 0 0 0 0 0 0 0 0 0 0 0 0 0 0 0 0 0 127 0" result="hardAlpha"/>
<feOffset dy="1"/>
<feGaussianBlur stdDeviation="1.5"/>
<feColorMatrix type="matrix" values="0 0 0 0 0.898039 0 0 0 0 0.964706 0 0 0 0 1 0 0 0 0.49 0"/>
<feBlend mode="normal" in2="BackgroundImageFix" result="effect1_dropShadow_595_562"/>
<feColorMatrix in="SourceAlpha" type="matrix" values="0 0 0 0 0 0 0 0 0 0 0 0 0 0 0 0 0 0 127 0" result="hardAlpha"/>
<feOffset dy="3"/>
<feGaussianBlur stdDeviation="3"/>
<feColorMatrix type="matrix" values="0 0 0 0 0.898039 0 0 0 0 0.964706 0 0 0 0 1 0 0 0 0.43 0"/>
<feBlend mode="normal" in2="effect1_dropShadow_595_562" result="effect2_dropShadow_595_562"/>
<feColorMatrix in="SourceAlpha" type="matrix" values="0 0 0 0 0 0 0 0 0 0 0 0 0 0 0 0 0 0 127 0" result="hardAlpha"/>
<feOffset dy="6"/>
<feGaussianBlur stdDeviation="4"/>
<feColorMatrix type="matrix" values="0 0 0 0 0.898039 0 0 0 0 0.964706 0 0 0 0 1 0 0 0 0.25 0"/>
<feBlend mode="normal" in2="effect2_dropShadow_595_562" result="effect3_dropShadow_595_562"/>
<feColorMatrix in="SourceAlpha" type="matrix" values="0 0 0 0 0 0 0 0 0 0 0 0 0 0 0 0 0 0 127 0" result="hardAlpha"/>
<feOffset dy="10"/>
<feGaussianBlur stdDeviation="4.5"/>
<feColorMatrix type="matrix" values="0 0 0 0 0.898039 0 0 0 0 0.964706 0 0 0 0 1 0 0 0 0.07 0"/>
<feBlend mode="normal" in2="effect3_dropShadow_595_562" result="effect4_dropShadow_595_562"/>
<feColorMatrix in="SourceAlpha" type="matrix" values="0 0 0 0 0 0 0 0 0 0 0 0 0 0 0 0 0 0 127 0" result="hardAlpha"/>
<feOffset dy="16"/>
<feGaussianBlur stdDeviation="5"/>
<feColorMatrix type="matrix" values="0 0 0 0 0.898039 0 0 0 0 0.964706 0 0 0 0 1 0 0 0 0.01 0"/>
<feBlend mode="normal" in2="effect4_dropShadow_595_562" result="effect5_dropShadow_595_562"/>
<feBlend mode="normal" in="SourceGraphic" in2="effect5_dropShadow_595_562" result="shape"/>
</filter>
</defs>
</svg>
