<svg width="18" height="20" viewBox="0 0 18 20" fill="none" xmlns="http://www.w3.org/2000/svg">
<path d="M9.00004 19.8633C7.64337 19.8633 6.27754 19.35 5.21421 18.3325C2.51004 15.7291 -0.478294 11.5766 0.649206 6.63581C1.66671 2.15331 5.58087 0.145813 9.00004 0.145813C9.00004 0.145813 9.00004 0.145813 9.00921 0.145813C12.4284 0.145813 16.3425 2.15331 17.36 6.64498C18.4784 11.5858 15.49 15.7291 12.7859 18.3325C11.7225 19.35 10.3567 19.8633 9.00004 19.8633ZM9.00004 1.52081C6.33254 1.52081 2.90421 2.94165 1.99671 6.93831C1.00671 11.2558 3.72004 14.9775 6.17671 17.3333C7.76254 18.8641 10.2467 18.8641 11.8325 17.3333C14.28 14.9775 16.9934 11.2558 16.0217 6.93831C15.105 2.94165 11.6675 1.52081 9.00004 1.52081Z" fill="#1D2B36"/>
</svg>
