<svg width="22" height="22" viewBox="0 0 22 22" fill="none" xmlns="http://www.w3.org/2000/svg">
<path d="M10.9996 12.9892C9.04715 12.9892 7.45215 11.4033 7.45215 9.44165C7.45215 7.47999 9.04715 5.90332 10.9996 5.90332C12.9521 5.90332 14.5471 7.48915 14.5471 9.45082C14.5471 11.4125 12.9521 12.9892 10.9996 12.9892ZM10.9996 7.27832C9.80798 7.27832 8.82715 8.24999 8.82715 9.45082C8.82715 10.6517 9.79882 11.6233 10.9996 11.6233C12.2005 11.6233 13.1721 10.6517 13.1721 9.45082C13.1721 8.24999 12.1913 7.27832 10.9996 7.27832Z" fill="#1D2B36"/>
<path d="M11 20.8633C9.64337 20.8633 8.27754 20.35 7.21421 19.3325C4.51004 16.7291 1.52171 12.5766 2.64921 7.63581C3.66671 3.15331 7.58087 1.14581 11 1.14581C11 1.14581 11 1.14581 11.0092 1.14581C14.4284 1.14581 18.3425 3.15331 19.36 7.64498C20.4784 12.5858 17.49 16.7291 14.7859 19.3325C13.7225 20.35 12.3567 20.8633 11 20.8633ZM11 2.52081C8.33254 2.52081 4.90421 3.94165 3.99671 7.93831C3.00671 12.2558 5.72004 15.9775 8.17671 18.3333C9.76254 19.8641 12.2467 19.8641 13.8325 18.3333C16.28 15.9775 18.9934 12.2558 18.0217 7.93831C17.105 3.94165 13.6675 2.52081 11 2.52081Z" fill="#1D2B36"/>
</svg>
