<svg width="20" height="20" viewBox="0 0 20 20" fill="none" xmlns="http://www.w3.org/2000/svg">
<path d="M14.996 19.8541C13.9602 19.8541 12.8693 19.6066 11.7418 19.13C10.6418 18.6625 9.53266 18.0208 8.451 17.2416C7.3785 16.4533 6.34266 15.5733 5.36183 14.6108C4.39016 13.63 3.51016 12.5941 2.731 11.5308C1.94266 10.4308 1.31016 9.33081 0.860996 8.26748C0.384329 7.13081 0.145996 6.03081 0.145996 4.99498C0.145996 4.27998 0.274329 3.60165 0.521829 2.96915C0.778496 2.31831 1.191 1.71331 1.75016 1.19081C2.456 0.494146 3.26266 0.145813 4.12433 0.145813C4.48183 0.145813 4.8485 0.228313 5.16016 0.37498C5.51766 0.53998 5.82016 0.78748 6.04016 1.11748L8.16683 4.11498C8.35933 4.38081 8.506 4.63748 8.60683 4.89415C8.726 5.16915 8.79016 5.44415 8.79016 5.70998C8.79016 6.05831 8.68933 6.39748 8.49683 6.71831C8.35933 6.96581 8.1485 7.23165 7.88266 7.49748L7.25933 8.14831C7.2685 8.17581 7.27766 8.19415 7.28683 8.21248C7.39683 8.40498 7.61683 8.73498 8.0385 9.22998C8.48766 9.74331 8.90933 10.2108 9.331 10.6416C9.87183 11.1733 10.321 11.595 10.7427 11.9433C11.2652 12.3833 11.6043 12.6033 11.806 12.7041L11.7877 12.75L12.4568 12.09C12.741 11.8058 13.016 11.595 13.2818 11.4575C13.786 11.1458 14.4277 11.0908 15.0693 11.3566C15.3077 11.4575 15.5643 11.595 15.8393 11.7875L18.8827 13.9508C19.2218 14.18 19.4693 14.4733 19.616 14.8216C19.7535 15.17 19.8177 15.4908 19.8177 15.8116C19.8177 16.2516 19.7168 16.6916 19.5243 17.1041C19.3318 17.5166 19.0935 17.8741 18.791 18.2041C18.2685 18.7816 17.7002 19.1941 17.0402 19.46C16.4077 19.7166 15.7202 19.8541 14.996 19.8541ZM4.12433 1.52081C3.62016 1.52081 3.15266 1.74081 2.7035 2.18081C2.28183 2.57498 1.9885 3.00581 1.80516 3.47331C1.61266 3.94998 1.521 4.45415 1.521 4.99498C1.521 5.84748 1.72266 6.77331 2.126 7.72665C2.5385 8.69831 3.116 9.70665 3.84933 10.715C4.58266 11.7233 5.41683 12.7041 6.3335 13.63C7.25016 14.5375 8.24016 15.3808 9.25766 16.1233C10.2477 16.8475 11.2652 17.4341 12.2735 17.8558C13.841 18.525 15.3077 18.6808 16.5177 18.1766C16.9852 17.9841 17.3977 17.6908 17.7735 17.2691C17.9843 17.04 18.1493 16.7925 18.2868 16.4991C18.3968 16.27 18.4518 16.0316 18.4518 15.7933C18.4518 15.6466 18.4243 15.5 18.351 15.335C18.3235 15.28 18.2685 15.1791 18.0943 15.06L15.051 12.8966C14.8677 12.7683 14.7027 12.6766 14.5468 12.6125C14.3452 12.53 14.2627 12.4475 13.951 12.64C13.7677 12.7316 13.6027 12.8691 13.4193 13.0525L12.7227 13.74C12.3652 14.0883 11.8152 14.1708 11.3935 14.015L11.146 13.905C10.7702 13.7033 10.3302 13.3916 9.84433 12.9791C9.40433 12.6033 8.92766 12.1633 8.35016 11.595C7.901 11.1366 7.45183 10.6508 6.98433 10.11C6.5535 9.60581 6.24183 9.17498 6.04933 8.81748L5.93933 8.54248C5.88433 8.33165 5.866 8.21248 5.866 8.08415C5.866 7.75415 5.98516 7.46081 6.21433 7.23165L6.90183 6.51665C7.08516 6.33331 7.22266 6.15915 7.31433 6.00331C7.38766 5.88415 7.41516 5.78331 7.41516 5.69165C7.41516 5.61831 7.38766 5.50831 7.34183 5.39831C7.27766 5.25165 7.17683 5.08665 7.0485 4.91248L4.92183 1.90581C4.83016 1.77748 4.72016 1.68581 4.58266 1.62165C4.436 1.55748 4.28016 1.52081 4.12433 1.52081ZM11.7877 12.7591L11.641 13.3825L11.8885 12.7408C11.8427 12.7316 11.806 12.7408 11.7877 12.7591Z" fill="#1D2B36"/>
</svg>
