<svg width="85" height="93" viewBox="0 0 85 93" fill="none" xmlns="http://www.w3.org/2000/svg">
<g filter="url(#filter0_ddddd_595_259)">
<rect x="10.5" y="3" width="64" height="64" rx="32" fill="#FDE7E8"/>
<rect x="11.25" y="3.75" width="62.5" height="62.5" rx="31.25" stroke="#FDD7D9" stroke-width="1.5"/>
<path d="M48.0604 32.4138H36.9404C35.3671 32.4138 34.8204 31.3604 35.7404 30.0804L41.3004 22.2937C41.9538 21.3604 43.0471 21.3604 43.7004 22.2937L49.2604 30.0804C50.1804 31.3604 49.6338 32.4138 48.0604 32.4138Z" fill="#ED1C24"/>
<path d="M49.9528 43.0007H35.0461C32.9395 43.0007 32.2195 41.6007 33.4595 39.8941L38.7795 32.4141H46.2195L51.5395 39.8941C52.7795 41.6007 52.0595 43.0007 49.9528 43.0007Z" fill="#ED1C24"/>
<path d="M43.5 43V48.3333C43.5 48.88 43.0467 49.3333 42.5 49.3333C41.9533 49.3333 41.5 48.88 41.5 48.3333V43H43.5Z" fill="#ED1C24"/>
</g>
<defs>
<filter id="filter0_ddddd_595_259" x="0.5" y="0" width="84" height="93" filterUnits="userSpaceOnUse" color-interpolation-filters="sRGB">
<feFlood flood-opacity="0" result="BackgroundImageFix"/>
<feColorMatrix in="SourceAlpha" type="matrix" values="0 0 0 0 0 0 0 0 0 0 0 0 0 0 0 0 0 0 127 0" result="hardAlpha"/>
<feOffset dy="1"/>
<feGaussianBlur stdDeviation="1.5"/>
<feColorMatrix type="matrix" values="0 0 0 0 0.992157 0 0 0 0 0.905882 0 0 0 0 0.909804 0 0 0 0.49 0"/>
<feBlend mode="normal" in2="BackgroundImageFix" result="effect1_dropShadow_595_259"/>
<feColorMatrix in="SourceAlpha" type="matrix" values="0 0 0 0 0 0 0 0 0 0 0 0 0 0 0 0 0 0 127 0" result="hardAlpha"/>
<feOffset dy="3"/>
<feGaussianBlur stdDeviation="3"/>
<feColorMatrix type="matrix" values="0 0 0 0 0.992157 0 0 0 0 0.905882 0 0 0 0 0.909804 0 0 0 0.43 0"/>
<feBlend mode="normal" in2="effect1_dropShadow_595_259" result="effect2_dropShadow_595_259"/>
<feColorMatrix in="SourceAlpha" type="matrix" values="0 0 0 0 0 0 0 0 0 0 0 0 0 0 0 0 0 0 127 0" result="hardAlpha"/>
<feOffset dy="6"/>
<feGaussianBlur stdDeviation="4"/>
<feColorMatrix type="matrix" values="0 0 0 0 0.992157 0 0 0 0 0.905882 0 0 0 0 0.909804 0 0 0 0.25 0"/>
<feBlend mode="normal" in2="effect2_dropShadow_595_259" result="effect3_dropShadow_595_259"/>
<feColorMatrix in="SourceAlpha" type="matrix" values="0 0 0 0 0 0 0 0 0 0 0 0 0 0 0 0 0 0 127 0" result="hardAlpha"/>
<feOffset dy="10"/>
<feGaussianBlur stdDeviation="4.5"/>
<feColorMatrix type="matrix" values="0 0 0 0 0.992157 0 0 0 0 0.905882 0 0 0 0 0.909804 0 0 0 0.07 0"/>
<feBlend mode="normal" in2="effect3_dropShadow_595_259" result="effect4_dropShadow_595_259"/>
<feColorMatrix in="SourceAlpha" type="matrix" values="0 0 0 0 0 0 0 0 0 0 0 0 0 0 0 0 0 0 127 0" result="hardAlpha"/>
<feOffset dy="16"/>
<feGaussianBlur stdDeviation="5"/>
<feColorMatrix type="matrix" values="0 0 0 0 0.992157 0 0 0 0 0.905882 0 0 0 0 0.909804 0 0 0 0.01 0"/>
<feBlend mode="normal" in2="effect4_dropShadow_595_259" result="effect5_dropShadow_595_259"/>
<feBlend mode="normal" in="SourceGraphic" in2="effect5_dropShadow_595_259" result="shape"/>
</filter>
</defs>
</svg>
